<svg width="14" height="16" viewBox="0 0 14 16" fill="none" xmlns="http://www.w3.org/2000/svg">
<path fill-rule="evenodd" clip-rule="evenodd" d="M2.46732 0.933323C2.59322 0.765453 2.79081 0.666656 3.00065 0.666656H11.0007C11.2105 0.666656 11.4081 0.765453 11.534 0.933323L13.534 3.59999C13.6205 3.71539 13.6673 3.85574 13.6673 3.99999V13.3333C13.6673 13.8638 13.4566 14.3725 13.0815 14.7475C12.7065 15.1226 12.1978 15.3333 11.6673 15.3333H2.33398C1.80355 15.3333 1.29484 15.1226 0.919771 14.7475C0.544698 14.3725 0.333984 13.8638 0.333984 13.3333V3.99999C0.333984 3.85574 0.38077 3.71539 0.467318 3.59999L2.46732 0.933323ZM3.33398 1.99999L1.66732 4.22221V13.3333C1.66732 13.5101 1.73756 13.6797 1.86258 13.8047C1.9876 13.9298 2.15717 14 2.33398 14H11.6673C11.8441 14 12.0137 13.9298 12.1387 13.8047C12.2637 13.6797 12.334 13.5101 12.334 13.3333V4.22221L10.6673 1.99999H3.33398Z" fill="#0F0F11"/>
</svg>
